<svg width="92" height="92" viewBox="0 0 92 92" fill="none" xmlns="http://www.w3.org/2000/svg">
<g clip-path="url(#clip0)">
<path d="M78.5568 7.94368C74.836 5.89523 70.5596 4.70929 65.9959 4.70929C57.9817 4.70929 50.7561 8.37274 46.0123 14.1229C41.2292 8.37329 34.0506 4.70929 25.9833 4.70929C21.4388 4.70929 17.1613 5.89523 13.4371 7.94368C5.42728 12.364 0 20.8823 0 30.6911C0 33.4942 0.448215 36.1896 1.27569 38.7059C3.71925 49.7023 16.9397 57.7155 28.4121 66.8435C37.823 74.3176 46.0161 87.2907 46.0161 87.2907C46.0161 87.2907 53.9581 74.4971 63.195 67.1675C74.732 58.0378 88.2424 49.8506 90.7238 38.7109C91.5534 36.195 92.0005 33.5003 92.0005 30.6971C91.9956 20.8823 86.5705 12.364 78.5568 7.94368ZM83.7132 36.4052C83.4609 37.196 82.7424 37.6634 81.9702 37.6634C81.7808 37.6634 81.5739 37.6634 81.3955 37.5917C80.4241 37.2693 79.9026 36.2273 80.2271 35.2554C80.7114 33.8166 80.9632 32.2711 80.9632 30.6917C80.9632 25.2643 77.9992 20.236 73.2341 17.6113C70.9903 16.3536 68.5653 15.7429 65.9953 15.7429C64.9725 15.7429 64.1598 14.9143 64.1598 13.9095C64.1598 12.8659 64.9725 12.075 65.9953 12.075C69.1941 12.075 72.2304 12.8297 75.0127 14.4125C80.9451 17.6463 84.6283 23.8994 84.6283 30.6911C84.6288 32.6662 84.324 34.5707 83.7132 36.4052Z" fill="#FF6E79"/>
</g>
<defs>
<clipPath id="clip0">
<rect width="92" height="92" fill="white"/>
</clipPath>
</defs>
</svg>
